<mxfile host="app.diagrams.net" agent="Mozilla/5.0 (Windows NT 10.0; Win64; x64) AppleWebKit/537.36 (KHTML, like Gecko) Chrome/132.0.0.0 Safari/537.36" version="27.1.6">
  <diagram name="第 1 页" id="lL7Bbmfb08AkzRW70oJ1">
    <mxGraphModel dx="1036" dy="562" grid="1" gridSize="10" guides="1" tooltips="1" connect="1" arrows="1" fold="1" page="1" pageScale="1" pageWidth="827" pageHeight="1169" math="0" shadow="0">
      <root>
        <mxCell id="0" />
        <mxCell id="1" parent="0" />
        <mxCell id="-X0U_aOXgv7xqYxP8Pqd-122" value="" style="rounded=1;whiteSpace=wrap;html=1;" vertex="1" parent="1">
          <mxGeometry x="501" y="88.5" width="319" height="60" as="geometry" />
        </mxCell>
        <mxCell id="-X0U_aOXgv7xqYxP8Pqd-121" value="" style="rounded=1;whiteSpace=wrap;html=1;" vertex="1" parent="1">
          <mxGeometry x="1" y="88.5" width="410" height="60" as="geometry" />
        </mxCell>
        <mxCell id="-X0U_aOXgv7xqYxP8Pqd-27" value="&lt;font style=&quot;color: rgb(0, 0, 0);&quot;&gt;政务外网&lt;/font&gt;" style="html=1;outlineConnect=0;fillColor=#CCCCCC;strokeColor=#6881B3;gradientColor=none;gradientDirection=north;strokeWidth=2;shape=mxgraph.networks.cloud;fontColor=#ffffff;" vertex="1" parent="1">
          <mxGeometry x="564" y="220" width="90" height="50" as="geometry" />
        </mxCell>
        <mxCell id="-X0U_aOXgv7xqYxP8Pqd-26" value="&lt;font style=&quot;color: rgb(0, 0, 0);&quot;&gt;互联网&lt;/font&gt;" style="html=1;outlineConnect=0;fillColor=#CCCCCC;strokeColor=#6881B3;gradientColor=none;gradientDirection=north;strokeWidth=2;shape=mxgraph.networks.cloud;fontColor=#ffffff;" vertex="1" parent="1">
          <mxGeometry x="192" y="220" width="90" height="50" as="geometry" />
        </mxCell>
        <mxCell id="-X0U_aOXgv7xqYxP8Pqd-49" value="" style="rounded=1;whiteSpace=wrap;html=1;" vertex="1" parent="1">
          <mxGeometry x="459.5" y="390" width="327" height="270" as="geometry" />
        </mxCell>
        <mxCell id="-X0U_aOXgv7xqYxP8Pqd-48" value="" style="rounded=1;whiteSpace=wrap;html=1;" vertex="1" parent="1">
          <mxGeometry x="73" y="390" width="327" height="270" as="geometry" />
        </mxCell>
        <mxCell id="-X0U_aOXgv7xqYxP8Pqd-14" value="" style="fontColor=#0066CC;verticalAlign=top;verticalLabelPosition=bottom;labelPosition=center;align=center;html=1;outlineConnect=0;fillColor=#CCCCCC;strokeColor=#6881B3;gradientColor=none;gradientDirection=north;strokeWidth=2;shape=mxgraph.networks.switch;" vertex="1" parent="1">
          <mxGeometry x="117" y="410" width="100" height="30" as="geometry" />
        </mxCell>
        <mxCell id="-X0U_aOXgv7xqYxP8Pqd-15" value="" style="fontColor=#0066CC;verticalAlign=top;verticalLabelPosition=bottom;labelPosition=center;align=center;html=1;outlineConnect=0;fillColor=#CCCCCC;strokeColor=#6881B3;gradientColor=none;gradientDirection=north;strokeWidth=2;shape=mxgraph.networks.switch;" vertex="1" parent="1">
          <mxGeometry x="253" y="410" width="100" height="30" as="geometry" />
        </mxCell>
        <mxCell id="-X0U_aOXgv7xqYxP8Pqd-16" value="" style="fontColor=#0066CC;verticalAlign=top;verticalLabelPosition=bottom;labelPosition=center;align=center;html=1;outlineConnect=0;fillColor=#CCCCCC;strokeColor=#6881B3;gradientColor=none;gradientDirection=north;strokeWidth=2;shape=mxgraph.networks.switch;" vertex="1" parent="1">
          <mxGeometry x="492" y="410" width="100" height="30" as="geometry" />
        </mxCell>
        <mxCell id="-X0U_aOXgv7xqYxP8Pqd-17" value="" style="fontColor=#0066CC;verticalAlign=top;verticalLabelPosition=bottom;labelPosition=center;align=center;html=1;outlineConnect=0;fillColor=#CCCCCC;strokeColor=#6881B3;gradientColor=none;gradientDirection=north;strokeWidth=2;shape=mxgraph.networks.switch;" vertex="1" parent="1">
          <mxGeometry x="652" y="410" width="100" height="30" as="geometry" />
        </mxCell>
        <mxCell id="-X0U_aOXgv7xqYxP8Pqd-18" value="" style="fontColor=#0066CC;verticalAlign=top;verticalLabelPosition=bottom;labelPosition=center;align=center;html=1;outlineConnect=0;fillColor=#CCCCCC;strokeColor=#6881B3;gradientColor=none;gradientDirection=north;strokeWidth=2;shape=mxgraph.networks.router;" vertex="1" parent="1">
          <mxGeometry x="137" y="260" width="80" height="20" as="geometry" />
        </mxCell>
        <mxCell id="-X0U_aOXgv7xqYxP8Pqd-22" value="" style="fontColor=#0066CC;verticalAlign=top;verticalLabelPosition=bottom;labelPosition=center;align=center;html=1;outlineConnect=0;fillColor=#CCCCCC;strokeColor=#6881B3;gradientColor=none;gradientDirection=north;strokeWidth=2;shape=mxgraph.networks.firewall;" vertex="1" parent="1">
          <mxGeometry x="162" y="330" width="53" height="50" as="geometry" />
        </mxCell>
        <mxCell id="-X0U_aOXgv7xqYxP8Pqd-23" value="" style="fontColor=#0066CC;verticalAlign=top;verticalLabelPosition=bottom;labelPosition=center;align=center;html=1;outlineConnect=0;fillColor=#CCCCCC;strokeColor=#6881B3;gradientColor=none;gradientDirection=north;strokeWidth=2;shape=mxgraph.networks.firewall;" vertex="1" parent="1">
          <mxGeometry x="262" y="330" width="53" height="50" as="geometry" />
        </mxCell>
        <mxCell id="-X0U_aOXgv7xqYxP8Pqd-24" value="" style="fontColor=#0066CC;verticalAlign=top;verticalLabelPosition=bottom;labelPosition=center;align=center;html=1;outlineConnect=0;fillColor=#CCCCCC;strokeColor=#6881B3;gradientColor=none;gradientDirection=north;strokeWidth=2;shape=mxgraph.networks.firewall;" vertex="1" parent="1">
          <mxGeometry x="544" y="330" width="53" height="50" as="geometry" />
        </mxCell>
        <mxCell id="-X0U_aOXgv7xqYxP8Pqd-25" value="" style="fontColor=#0066CC;verticalAlign=top;verticalLabelPosition=bottom;labelPosition=center;align=center;html=1;outlineConnect=0;fillColor=#CCCCCC;strokeColor=#6881B3;gradientColor=none;gradientDirection=north;strokeWidth=2;shape=mxgraph.networks.firewall;" vertex="1" parent="1">
          <mxGeometry x="634" y="330" width="53" height="50" as="geometry" />
        </mxCell>
        <mxCell id="-X0U_aOXgv7xqYxP8Pqd-28" value="" style="fontColor=#0066CC;verticalAlign=top;verticalLabelPosition=bottom;labelPosition=center;align=center;html=1;outlineConnect=0;fillColor=#CCCCCC;strokeColor=#6881B3;gradientColor=none;gradientDirection=north;strokeWidth=2;shape=mxgraph.networks.pc;" vertex="1" parent="1">
          <mxGeometry x="517" y="98" width="50" height="41" as="geometry" />
        </mxCell>
        <mxCell id="-X0U_aOXgv7xqYxP8Pqd-29" value="" style="fontColor=#0066CC;verticalAlign=top;verticalLabelPosition=bottom;labelPosition=center;align=center;html=1;outlineConnect=0;fillColor=#CCCCCC;strokeColor=#6881B3;gradientColor=none;gradientDirection=north;strokeWidth=2;shape=mxgraph.networks.web_server;" vertex="1" parent="1">
          <mxGeometry x="138" y="585" width="55" height="55" as="geometry" />
        </mxCell>
        <mxCell id="-X0U_aOXgv7xqYxP8Pqd-30" value="" style="fontColor=#0066CC;verticalAlign=top;verticalLabelPosition=bottom;labelPosition=center;align=center;html=1;outlineConnect=0;fillColor=#CCCCCC;strokeColor=#6881B3;gradientColor=none;gradientDirection=north;strokeWidth=2;shape=mxgraph.networks.load_balancer;" vertex="1" parent="1">
          <mxGeometry x="186" y="480" width="100" height="30" as="geometry" />
        </mxCell>
        <mxCell id="-X0U_aOXgv7xqYxP8Pqd-31" value="" style="fontColor=#0066CC;verticalAlign=top;verticalLabelPosition=bottom;labelPosition=center;align=center;html=1;outlineConnect=0;fillColor=#CCCCCC;strokeColor=#6881B3;gradientColor=none;gradientDirection=north;strokeWidth=2;shape=mxgraph.networks.web_server;" vertex="1" parent="1">
          <mxGeometry x="223" y="585" width="55" height="55" as="geometry" />
        </mxCell>
        <mxCell id="-X0U_aOXgv7xqYxP8Pqd-32" value="" style="fontColor=#0066CC;verticalAlign=top;verticalLabelPosition=bottom;labelPosition=center;align=center;html=1;outlineConnect=0;fillColor=#CCCCCC;strokeColor=#6881B3;gradientColor=none;gradientDirection=north;strokeWidth=2;shape=mxgraph.networks.web_server;" vertex="1" parent="1">
          <mxGeometry x="320.5" y="585" width="55" height="55" as="geometry" />
        </mxCell>
        <mxCell id="-X0U_aOXgv7xqYxP8Pqd-33" value="" style="fontColor=#0066CC;verticalAlign=top;verticalLabelPosition=bottom;labelPosition=center;align=center;html=1;outlineConnect=0;fillColor=#CCCCCC;strokeColor=#6881B3;gradientColor=none;gradientDirection=north;strokeWidth=2;shape=mxgraph.networks.server;" vertex="1" parent="1">
          <mxGeometry x="510" y="580" width="50" height="55" as="geometry" />
        </mxCell>
        <mxCell id="-X0U_aOXgv7xqYxP8Pqd-34" value="" style="fontColor=#0066CC;verticalAlign=top;verticalLabelPosition=bottom;labelPosition=center;align=center;html=1;outlineConnect=0;fillColor=#CCCCCC;strokeColor=#6881B3;gradientColor=none;gradientDirection=north;strokeWidth=2;shape=mxgraph.networks.server;" vertex="1" parent="1">
          <mxGeometry x="580" y="580" width="50" height="55" as="geometry" />
        </mxCell>
        <mxCell id="-X0U_aOXgv7xqYxP8Pqd-35" value="" style="fontColor=#0066CC;verticalAlign=top;verticalLabelPosition=bottom;labelPosition=center;align=center;html=1;outlineConnect=0;fillColor=#CCCCCC;strokeColor=#6881B3;gradientColor=none;gradientDirection=north;strokeWidth=2;shape=mxgraph.networks.server;" vertex="1" parent="1">
          <mxGeometry x="650" y="580" width="50" height="55" as="geometry" />
        </mxCell>
        <mxCell id="-X0U_aOXgv7xqYxP8Pqd-36" value="" style="fontColor=#0066CC;verticalAlign=top;verticalLabelPosition=bottom;labelPosition=center;align=center;html=1;outlineConnect=0;fillColor=#CCCCCC;strokeColor=#6881B3;gradientColor=none;gradientDirection=north;strokeWidth=2;shape=mxgraph.networks.server;" vertex="1" parent="1">
          <mxGeometry x="710" y="580" width="50" height="55" as="geometry" />
        </mxCell>
        <mxCell id="-X0U_aOXgv7xqYxP8Pqd-37" value="" style="fontColor=#0066CC;verticalAlign=top;verticalLabelPosition=bottom;labelPosition=center;align=center;html=1;outlineConnect=0;fillColor=#CCCCCC;strokeColor=#6881B3;gradientColor=none;gradientDirection=north;strokeWidth=2;shape=mxgraph.networks.load_balancer;" vertex="1" parent="1">
          <mxGeometry x="573" y="480" width="100" height="30" as="geometry" />
        </mxCell>
        <mxCell id="-X0U_aOXgv7xqYxP8Pqd-39" value="" style="fontColor=#0066CC;verticalAlign=top;verticalLabelPosition=bottom;labelPosition=center;align=center;html=1;outlineConnect=0;fillColor=#CCCCCC;strokeColor=#6881B3;gradientColor=none;gradientDirection=north;strokeWidth=2;shape=mxgraph.networks.pc;" vertex="1" parent="1">
          <mxGeometry x="590" y="98" width="50" height="41" as="geometry" />
        </mxCell>
        <mxCell id="-X0U_aOXgv7xqYxP8Pqd-40" value="" style="fontColor=#0066CC;verticalAlign=top;verticalLabelPosition=bottom;labelPosition=center;align=center;html=1;outlineConnect=0;fillColor=#CCCCCC;strokeColor=#6881B3;gradientColor=none;gradientDirection=north;strokeWidth=2;shape=mxgraph.networks.pc;" vertex="1" parent="1">
          <mxGeometry x="667" y="98" width="50" height="41" as="geometry" />
        </mxCell>
        <mxCell id="-X0U_aOXgv7xqYxP8Pqd-41" value="" style="fontColor=#0066CC;verticalAlign=top;verticalLabelPosition=bottom;labelPosition=center;align=center;html=1;outlineConnect=0;fillColor=#CCCCCC;strokeColor=#6881B3;gradientColor=none;gradientDirection=north;strokeWidth=2;shape=mxgraph.networks.terminal;" vertex="1" parent="1">
          <mxGeometry x="244" y="100" width="40" height="45" as="geometry" />
        </mxCell>
        <mxCell id="-X0U_aOXgv7xqYxP8Pqd-42" value="" style="fontColor=#0066CC;verticalAlign=top;verticalLabelPosition=bottom;labelPosition=center;align=center;html=1;outlineConnect=0;fillColor=#CCCCCC;strokeColor=#6881B3;gradientColor=none;gradientDirection=north;strokeWidth=2;shape=mxgraph.networks.terminal;" vertex="1" parent="1">
          <mxGeometry x="300" y="100" width="40" height="45" as="geometry" />
        </mxCell>
        <mxCell id="-X0U_aOXgv7xqYxP8Pqd-43" value="" style="fontColor=#0066CC;verticalAlign=top;verticalLabelPosition=bottom;labelPosition=center;align=center;html=1;outlineConnect=0;fillColor=#CCCCCC;strokeColor=#6881B3;gradientColor=none;gradientDirection=north;strokeWidth=2;shape=mxgraph.networks.terminal;" vertex="1" parent="1">
          <mxGeometry x="356.5" y="100" width="40" height="45" as="geometry" />
        </mxCell>
        <mxCell id="-X0U_aOXgv7xqYxP8Pqd-44" value="" style="fontColor=#0066CC;verticalAlign=top;verticalLabelPosition=bottom;labelPosition=center;align=center;html=1;outlineConnect=0;fillColor=#CCCCCC;strokeColor=#6881B3;gradientColor=none;gradientDirection=north;strokeWidth=2;shape=mxgraph.networks.firewall;" vertex="1" parent="1">
          <mxGeometry x="417" y="411" width="33" height="30" as="geometry" />
        </mxCell>
        <mxCell id="-X0U_aOXgv7xqYxP8Pqd-45" value="" style="fontColor=#0066CC;verticalAlign=top;verticalLabelPosition=bottom;labelPosition=center;align=center;html=1;outlineConnect=0;fillColor=#CCCCCC;strokeColor=#6881B3;gradientColor=none;gradientDirection=north;strokeWidth=2;shape=mxgraph.networks.terminal;" vertex="1" parent="1">
          <mxGeometry x="72.5" y="100" width="40" height="45" as="geometry" />
        </mxCell>
        <mxCell id="-X0U_aOXgv7xqYxP8Pqd-46" value="" style="fontColor=#0066CC;verticalAlign=top;verticalLabelPosition=bottom;labelPosition=center;align=center;html=1;outlineConnect=0;fillColor=#CCCCCC;strokeColor=#6881B3;gradientColor=none;gradientDirection=north;strokeWidth=2;shape=mxgraph.networks.terminal;" vertex="1" parent="1">
          <mxGeometry x="128.5" y="100" width="40" height="45" as="geometry" />
        </mxCell>
        <mxCell id="-X0U_aOXgv7xqYxP8Pqd-47" value="" style="fontColor=#0066CC;verticalAlign=top;verticalLabelPosition=bottom;labelPosition=center;align=center;html=1;outlineConnect=0;fillColor=#CCCCCC;strokeColor=#6881B3;gradientColor=none;gradientDirection=north;strokeWidth=2;shape=mxgraph.networks.terminal;" vertex="1" parent="1">
          <mxGeometry x="185" y="100" width="40" height="45" as="geometry" />
        </mxCell>
        <mxCell id="-X0U_aOXgv7xqYxP8Pqd-50" value="互联网区" style="rounded=0;whiteSpace=wrap;html=1;strokeColor=none;" vertex="1" parent="1">
          <mxGeometry x="75" y="441" width="25" height="129" as="geometry" />
        </mxCell>
        <mxCell id="-X0U_aOXgv7xqYxP8Pqd-51" value="政务外网区" style="rounded=0;whiteSpace=wrap;html=1;strokeColor=none;" vertex="1" parent="1">
          <mxGeometry x="459.5" y="441" width="25" height="129" as="geometry" />
        </mxCell>
        <mxCell id="-X0U_aOXgv7xqYxP8Pqd-52" value="" style="fontColor=#0066CC;verticalAlign=top;verticalLabelPosition=bottom;labelPosition=center;align=center;html=1;outlineConnect=0;fillColor=#CCCCCC;strokeColor=#6881B3;gradientColor=none;gradientDirection=north;strokeWidth=2;shape=mxgraph.networks.router;" vertex="1" parent="1">
          <mxGeometry x="253" y="260" width="80" height="20" as="geometry" />
        </mxCell>
        <mxCell id="-X0U_aOXgv7xqYxP8Pqd-53" value="" style="fontColor=#0066CC;verticalAlign=top;verticalLabelPosition=bottom;labelPosition=center;align=center;html=1;outlineConnect=0;fillColor=#CCCCCC;strokeColor=#6881B3;gradientColor=none;gradientDirection=north;strokeWidth=2;shape=mxgraph.networks.router;" vertex="1" parent="1">
          <mxGeometry x="511.5" y="260" width="80" height="20" as="geometry" />
        </mxCell>
        <mxCell id="-X0U_aOXgv7xqYxP8Pqd-54" value="" style="fontColor=#0066CC;verticalAlign=top;verticalLabelPosition=bottom;labelPosition=center;align=center;html=1;outlineConnect=0;fillColor=#CCCCCC;strokeColor=#6881B3;gradientColor=none;gradientDirection=north;strokeWidth=2;shape=mxgraph.networks.router;" vertex="1" parent="1">
          <mxGeometry x="633" y="260" width="80" height="20" as="geometry" />
        </mxCell>
        <mxCell id="-X0U_aOXgv7xqYxP8Pqd-55" value="" style="endArrow=none;html=1;rounded=0;entryX=0.5;entryY=1;entryDx=0;entryDy=0;entryPerimeter=0;" edge="1" parent="1" source="-X0U_aOXgv7xqYxP8Pqd-23" target="-X0U_aOXgv7xqYxP8Pqd-18">
          <mxGeometry width="50" height="50" relative="1" as="geometry">
            <mxPoint x="372" y="380" as="sourcePoint" />
            <mxPoint x="422" y="330" as="targetPoint" />
          </mxGeometry>
        </mxCell>
        <mxCell id="-X0U_aOXgv7xqYxP8Pqd-56" value="" style="endArrow=none;html=1;rounded=0;" edge="1" parent="1" source="-X0U_aOXgv7xqYxP8Pqd-22" target="-X0U_aOXgv7xqYxP8Pqd-52">
          <mxGeometry width="50" height="50" relative="1" as="geometry">
            <mxPoint x="387" y="357" as="sourcePoint" />
            <mxPoint x="302" y="300" as="targetPoint" />
          </mxGeometry>
        </mxCell>
        <mxCell id="-X0U_aOXgv7xqYxP8Pqd-57" value="" style="endArrow=none;html=1;rounded=0;entryX=0.5;entryY=1;entryDx=0;entryDy=0;entryPerimeter=0;" edge="1" parent="1" source="-X0U_aOXgv7xqYxP8Pqd-22" target="-X0U_aOXgv7xqYxP8Pqd-18">
          <mxGeometry width="50" height="50" relative="1" as="geometry">
            <mxPoint x="417" y="357" as="sourcePoint" />
            <mxPoint x="332" y="300" as="targetPoint" />
          </mxGeometry>
        </mxCell>
        <mxCell id="-X0U_aOXgv7xqYxP8Pqd-58" value="" style="endArrow=none;html=1;rounded=0;entryX=0.5;entryY=1;entryDx=0;entryDy=0;entryPerimeter=0;exitX=0.5;exitY=0;exitDx=0;exitDy=0;exitPerimeter=0;" edge="1" parent="1" source="-X0U_aOXgv7xqYxP8Pqd-23" target="-X0U_aOXgv7xqYxP8Pqd-52">
          <mxGeometry width="50" height="50" relative="1" as="geometry">
            <mxPoint x="360" y="370" as="sourcePoint" />
            <mxPoint x="352" y="320" as="targetPoint" />
          </mxGeometry>
        </mxCell>
        <mxCell id="-X0U_aOXgv7xqYxP8Pqd-59" value="" style="endArrow=none;html=1;rounded=0;" edge="1" parent="1" source="-X0U_aOXgv7xqYxP8Pqd-24" target="-X0U_aOXgv7xqYxP8Pqd-53">
          <mxGeometry width="50" height="50" relative="1" as="geometry">
            <mxPoint x="378" y="350" as="sourcePoint" />
            <mxPoint x="370" y="300" as="targetPoint" />
          </mxGeometry>
        </mxCell>
        <mxCell id="-X0U_aOXgv7xqYxP8Pqd-60" value="" style="endArrow=none;html=1;rounded=0;entryX=0.5;entryY=1;entryDx=0;entryDy=0;entryPerimeter=0;" edge="1" parent="1" source="-X0U_aOXgv7xqYxP8Pqd-25" target="-X0U_aOXgv7xqYxP8Pqd-53">
          <mxGeometry width="50" height="50" relative="1" as="geometry">
            <mxPoint x="548" y="390" as="sourcePoint" />
            <mxPoint x="540" y="340" as="targetPoint" />
          </mxGeometry>
        </mxCell>
        <mxCell id="-X0U_aOXgv7xqYxP8Pqd-61" value="" style="endArrow=none;html=1;rounded=0;entryX=0.5;entryY=1;entryDx=0;entryDy=0;entryPerimeter=0;" edge="1" parent="1" source="-X0U_aOXgv7xqYxP8Pqd-24" target="-X0U_aOXgv7xqYxP8Pqd-54">
          <mxGeometry width="50" height="50" relative="1" as="geometry">
            <mxPoint x="658" y="390" as="sourcePoint" />
            <mxPoint x="650" y="340" as="targetPoint" />
          </mxGeometry>
        </mxCell>
        <mxCell id="-X0U_aOXgv7xqYxP8Pqd-62" value="" style="endArrow=none;html=1;rounded=0;" edge="1" parent="1" source="-X0U_aOXgv7xqYxP8Pqd-25">
          <mxGeometry width="50" height="50" relative="1" as="geometry">
            <mxPoint x="588" y="390" as="sourcePoint" />
            <mxPoint x="690" y="280" as="targetPoint" />
          </mxGeometry>
        </mxCell>
        <mxCell id="-X0U_aOXgv7xqYxP8Pqd-63" value="" style="endArrow=none;html=1;rounded=0;exitX=0.5;exitY=0;exitDx=0;exitDy=0;exitPerimeter=0;" edge="1" parent="1" source="-X0U_aOXgv7xqYxP8Pqd-15" target="-X0U_aOXgv7xqYxP8Pqd-22">
          <mxGeometry width="50" height="50" relative="1" as="geometry">
            <mxPoint x="370" y="400" as="sourcePoint" />
            <mxPoint x="362" y="350" as="targetPoint" />
          </mxGeometry>
        </mxCell>
        <mxCell id="-X0U_aOXgv7xqYxP8Pqd-64" value="" style="endArrow=none;html=1;rounded=0;" edge="1" parent="1" target="-X0U_aOXgv7xqYxP8Pqd-23">
          <mxGeometry width="50" height="50" relative="1" as="geometry">
            <mxPoint x="302" y="410" as="sourcePoint" />
            <mxPoint x="402" y="330" as="targetPoint" />
          </mxGeometry>
        </mxCell>
        <mxCell id="-X0U_aOXgv7xqYxP8Pqd-65" value="" style="endArrow=none;html=1;rounded=0;" edge="1" parent="1" source="-X0U_aOXgv7xqYxP8Pqd-14" target="-X0U_aOXgv7xqYxP8Pqd-23">
          <mxGeometry width="50" height="50" relative="1" as="geometry">
            <mxPoint x="410" y="400" as="sourcePoint" />
            <mxPoint x="402" y="350" as="targetPoint" />
          </mxGeometry>
        </mxCell>
        <mxCell id="-X0U_aOXgv7xqYxP8Pqd-66" value="" style="endArrow=none;html=1;rounded=0;" edge="1" parent="1" source="-X0U_aOXgv7xqYxP8Pqd-14" target="-X0U_aOXgv7xqYxP8Pqd-22">
          <mxGeometry width="50" height="50" relative="1" as="geometry">
            <mxPoint x="420" y="420" as="sourcePoint" />
            <mxPoint x="412" y="370" as="targetPoint" />
          </mxGeometry>
        </mxCell>
        <mxCell id="-X0U_aOXgv7xqYxP8Pqd-67" value="" style="endArrow=none;html=1;rounded=0;exitX=0.5;exitY=0;exitDx=0;exitDy=0;exitPerimeter=0;" edge="1" parent="1" source="-X0U_aOXgv7xqYxP8Pqd-30" target="-X0U_aOXgv7xqYxP8Pqd-14">
          <mxGeometry width="50" height="50" relative="1" as="geometry">
            <mxPoint x="438" y="350" as="sourcePoint" />
            <mxPoint x="430" y="300" as="targetPoint" />
          </mxGeometry>
        </mxCell>
        <mxCell id="-X0U_aOXgv7xqYxP8Pqd-68" value="" style="endArrow=none;html=1;rounded=0;" edge="1" parent="1" source="-X0U_aOXgv7xqYxP8Pqd-30" target="-X0U_aOXgv7xqYxP8Pqd-15">
          <mxGeometry width="50" height="50" relative="1" as="geometry">
            <mxPoint x="448" y="360" as="sourcePoint" />
            <mxPoint x="440" y="310" as="targetPoint" />
          </mxGeometry>
        </mxCell>
        <mxCell id="-X0U_aOXgv7xqYxP8Pqd-69" value="" style="endArrow=none;html=1;rounded=0;" edge="1" parent="1" source="-X0U_aOXgv7xqYxP8Pqd-29" target="-X0U_aOXgv7xqYxP8Pqd-30">
          <mxGeometry width="50" height="50" relative="1" as="geometry">
            <mxPoint x="378" y="610" as="sourcePoint" />
            <mxPoint x="370" y="560" as="targetPoint" />
          </mxGeometry>
        </mxCell>
        <mxCell id="-X0U_aOXgv7xqYxP8Pqd-70" value="" style="endArrow=none;html=1;rounded=0;exitX=0.5;exitY=1;exitDx=0;exitDy=0;exitPerimeter=0;" edge="1" parent="1" source="-X0U_aOXgv7xqYxP8Pqd-30" target="-X0U_aOXgv7xqYxP8Pqd-31">
          <mxGeometry width="50" height="50" relative="1" as="geometry">
            <mxPoint x="388" y="700" as="sourcePoint" />
            <mxPoint x="380" y="650" as="targetPoint" />
          </mxGeometry>
        </mxCell>
        <mxCell id="-X0U_aOXgv7xqYxP8Pqd-71" value="" style="endArrow=none;html=1;rounded=0;entryX=0.9;entryY=1;entryDx=0;entryDy=0;entryPerimeter=0;" edge="1" parent="1" source="-X0U_aOXgv7xqYxP8Pqd-32" target="-X0U_aOXgv7xqYxP8Pqd-30">
          <mxGeometry width="50" height="50" relative="1" as="geometry">
            <mxPoint x="458" y="760" as="sourcePoint" />
            <mxPoint x="450" y="710" as="targetPoint" />
          </mxGeometry>
        </mxCell>
        <mxCell id="-X0U_aOXgv7xqYxP8Pqd-72" value="" style="endArrow=none;html=1;rounded=0;exitX=0;exitY=0.5;exitDx=0;exitDy=0;exitPerimeter=0;" edge="1" parent="1" source="-X0U_aOXgv7xqYxP8Pqd-44" target="-X0U_aOXgv7xqYxP8Pqd-15">
          <mxGeometry width="50" height="50" relative="1" as="geometry">
            <mxPoint x="438" y="740" as="sourcePoint" />
            <mxPoint x="430" y="690" as="targetPoint" />
          </mxGeometry>
        </mxCell>
        <mxCell id="-X0U_aOXgv7xqYxP8Pqd-73" value="" style="endArrow=none;html=1;rounded=0;" edge="1" parent="1" source="-X0U_aOXgv7xqYxP8Pqd-16" target="-X0U_aOXgv7xqYxP8Pqd-44">
          <mxGeometry width="50" height="50" relative="1" as="geometry">
            <mxPoint x="438" y="730" as="sourcePoint" />
            <mxPoint x="430" y="680" as="targetPoint" />
          </mxGeometry>
        </mxCell>
        <mxCell id="-X0U_aOXgv7xqYxP8Pqd-74" value="" style="endArrow=none;html=1;rounded=0;" edge="1" parent="1" source="-X0U_aOXgv7xqYxP8Pqd-14" target="-X0U_aOXgv7xqYxP8Pqd-44">
          <mxGeometry width="50" height="50" relative="1" as="geometry">
            <mxPoint x="438" y="730" as="sourcePoint" />
            <mxPoint x="430" y="680" as="targetPoint" />
          </mxGeometry>
        </mxCell>
        <mxCell id="-X0U_aOXgv7xqYxP8Pqd-75" value="" style="endArrow=none;html=1;rounded=0;" edge="1" parent="1" source="-X0U_aOXgv7xqYxP8Pqd-17" target="-X0U_aOXgv7xqYxP8Pqd-44">
          <mxGeometry width="50" height="50" relative="1" as="geometry">
            <mxPoint x="418" y="680" as="sourcePoint" />
            <mxPoint x="410" y="630" as="targetPoint" />
          </mxGeometry>
        </mxCell>
        <mxCell id="-X0U_aOXgv7xqYxP8Pqd-76" value="" style="endArrow=none;html=1;rounded=0;" edge="1" parent="1" source="-X0U_aOXgv7xqYxP8Pqd-16" target="-X0U_aOXgv7xqYxP8Pqd-24">
          <mxGeometry width="50" height="50" relative="1" as="geometry">
            <mxPoint x="438" y="720" as="sourcePoint" />
            <mxPoint x="430" y="670" as="targetPoint" />
          </mxGeometry>
        </mxCell>
        <mxCell id="-X0U_aOXgv7xqYxP8Pqd-77" value="" style="endArrow=none;html=1;rounded=0;" edge="1" parent="1" source="-X0U_aOXgv7xqYxP8Pqd-17" target="-X0U_aOXgv7xqYxP8Pqd-24">
          <mxGeometry width="50" height="50" relative="1" as="geometry">
            <mxPoint x="468" y="770" as="sourcePoint" />
            <mxPoint x="460" y="720" as="targetPoint" />
          </mxGeometry>
        </mxCell>
        <mxCell id="-X0U_aOXgv7xqYxP8Pqd-78" value="" style="endArrow=none;html=1;rounded=0;" edge="1" parent="1" source="-X0U_aOXgv7xqYxP8Pqd-17" target="-X0U_aOXgv7xqYxP8Pqd-25">
          <mxGeometry width="50" height="50" relative="1" as="geometry">
            <mxPoint x="448" y="380" as="sourcePoint" />
            <mxPoint x="440" y="330" as="targetPoint" />
          </mxGeometry>
        </mxCell>
        <mxCell id="-X0U_aOXgv7xqYxP8Pqd-79" value="" style="endArrow=none;html=1;rounded=0;" edge="1" parent="1" source="-X0U_aOXgv7xqYxP8Pqd-16" target="-X0U_aOXgv7xqYxP8Pqd-25">
          <mxGeometry width="50" height="50" relative="1" as="geometry">
            <mxPoint x="550" y="420" as="sourcePoint" />
            <mxPoint x="420" y="310" as="targetPoint" />
          </mxGeometry>
        </mxCell>
        <mxCell id="-X0U_aOXgv7xqYxP8Pqd-80" value="" style="endArrow=none;html=1;rounded=0;" edge="1" parent="1" source="-X0U_aOXgv7xqYxP8Pqd-37" target="-X0U_aOXgv7xqYxP8Pqd-16">
          <mxGeometry width="50" height="50" relative="1" as="geometry">
            <mxPoint x="428" y="400" as="sourcePoint" />
            <mxPoint x="420" y="350" as="targetPoint" />
          </mxGeometry>
        </mxCell>
        <mxCell id="-X0U_aOXgv7xqYxP8Pqd-81" value="" style="endArrow=none;html=1;rounded=0;" edge="1" parent="1" source="-X0U_aOXgv7xqYxP8Pqd-37" target="-X0U_aOXgv7xqYxP8Pqd-17">
          <mxGeometry width="50" height="50" relative="1" as="geometry">
            <mxPoint x="448" y="420" as="sourcePoint" />
            <mxPoint x="440" y="370" as="targetPoint" />
          </mxGeometry>
        </mxCell>
        <mxCell id="-X0U_aOXgv7xqYxP8Pqd-82" value="" style="endArrow=none;html=1;rounded=0;" edge="1" parent="1" source="-X0U_aOXgv7xqYxP8Pqd-33" target="-X0U_aOXgv7xqYxP8Pqd-37">
          <mxGeometry width="50" height="50" relative="1" as="geometry">
            <mxPoint x="448" y="700" as="sourcePoint" />
            <mxPoint x="440" y="650" as="targetPoint" />
          </mxGeometry>
        </mxCell>
        <mxCell id="-X0U_aOXgv7xqYxP8Pqd-83" value="" style="endArrow=none;html=1;rounded=0;" edge="1" parent="1" source="-X0U_aOXgv7xqYxP8Pqd-34" target="-X0U_aOXgv7xqYxP8Pqd-37">
          <mxGeometry width="50" height="50" relative="1" as="geometry">
            <mxPoint x="528" y="720" as="sourcePoint" />
            <mxPoint x="520" y="670" as="targetPoint" />
          </mxGeometry>
        </mxCell>
        <mxCell id="-X0U_aOXgv7xqYxP8Pqd-84" value="" style="endArrow=none;html=1;rounded=0;" edge="1" parent="1" source="-X0U_aOXgv7xqYxP8Pqd-35" target="-X0U_aOXgv7xqYxP8Pqd-37">
          <mxGeometry width="50" height="50" relative="1" as="geometry">
            <mxPoint x="658" y="740" as="sourcePoint" />
            <mxPoint x="650" y="690" as="targetPoint" />
          </mxGeometry>
        </mxCell>
        <mxCell id="-X0U_aOXgv7xqYxP8Pqd-85" value="" style="endArrow=none;html=1;rounded=0;" edge="1" parent="1" source="-X0U_aOXgv7xqYxP8Pqd-36" target="-X0U_aOXgv7xqYxP8Pqd-37">
          <mxGeometry width="50" height="50" relative="1" as="geometry">
            <mxPoint x="728" y="730" as="sourcePoint" />
            <mxPoint x="720" y="680" as="targetPoint" />
          </mxGeometry>
        </mxCell>
        <mxCell id="-X0U_aOXgv7xqYxP8Pqd-86" value="" style="fontColor=#0066CC;verticalAlign=top;verticalLabelPosition=bottom;labelPosition=center;align=center;html=1;outlineConnect=0;fillColor=#CCCCCC;strokeColor=#6881B3;gradientColor=none;gradientDirection=north;strokeWidth=2;shape=mxgraph.networks.comm_link;" vertex="1" parent="1">
          <mxGeometry x="224" y="180" width="20" height="50" as="geometry" />
        </mxCell>
        <mxCell id="-X0U_aOXgv7xqYxP8Pqd-87" value="" style="endArrow=none;html=1;rounded=0;exitX=0;exitY=0.42;exitDx=0;exitDy=0;exitPerimeter=0;" edge="1" parent="1" source="-X0U_aOXgv7xqYxP8Pqd-86" target="-X0U_aOXgv7xqYxP8Pqd-45">
          <mxGeometry width="50" height="50" relative="1" as="geometry">
            <mxPoint x="390" y="400" as="sourcePoint" />
            <mxPoint x="440" y="350" as="targetPoint" />
          </mxGeometry>
        </mxCell>
        <mxCell id="-X0U_aOXgv7xqYxP8Pqd-88" value="" style="endArrow=none;html=1;rounded=0;" edge="1" parent="1" source="-X0U_aOXgv7xqYxP8Pqd-86" target="-X0U_aOXgv7xqYxP8Pqd-46">
          <mxGeometry width="50" height="50" relative="1" as="geometry">
            <mxPoint x="291" y="247" as="sourcePoint" />
            <mxPoint x="180" y="180" as="targetPoint" />
          </mxGeometry>
        </mxCell>
        <mxCell id="-X0U_aOXgv7xqYxP8Pqd-89" value="" style="endArrow=none;html=1;rounded=0;" edge="1" parent="1" source="-X0U_aOXgv7xqYxP8Pqd-86" target="-X0U_aOXgv7xqYxP8Pqd-47">
          <mxGeometry width="50" height="50" relative="1" as="geometry">
            <mxPoint x="471" y="297" as="sourcePoint" />
            <mxPoint x="360" y="230" as="targetPoint" />
          </mxGeometry>
        </mxCell>
        <mxCell id="-X0U_aOXgv7xqYxP8Pqd-90" value="" style="endArrow=none;html=1;rounded=0;" edge="1" parent="1" source="-X0U_aOXgv7xqYxP8Pqd-86" target="-X0U_aOXgv7xqYxP8Pqd-41">
          <mxGeometry width="50" height="50" relative="1" as="geometry">
            <mxPoint x="471" y="277" as="sourcePoint" />
            <mxPoint x="360" y="210" as="targetPoint" />
          </mxGeometry>
        </mxCell>
        <mxCell id="-X0U_aOXgv7xqYxP8Pqd-91" value="" style="endArrow=none;html=1;rounded=0;" edge="1" parent="1" source="-X0U_aOXgv7xqYxP8Pqd-86" target="-X0U_aOXgv7xqYxP8Pqd-42">
          <mxGeometry width="50" height="50" relative="1" as="geometry">
            <mxPoint x="491" y="307" as="sourcePoint" />
            <mxPoint x="380" y="240" as="targetPoint" />
          </mxGeometry>
        </mxCell>
        <mxCell id="-X0U_aOXgv7xqYxP8Pqd-92" value="" style="endArrow=none;html=1;rounded=0;" edge="1" parent="1" source="-X0U_aOXgv7xqYxP8Pqd-86" target="-X0U_aOXgv7xqYxP8Pqd-43">
          <mxGeometry width="50" height="50" relative="1" as="geometry">
            <mxPoint x="491" y="277" as="sourcePoint" />
            <mxPoint x="380" y="210" as="targetPoint" />
          </mxGeometry>
        </mxCell>
        <mxCell id="-X0U_aOXgv7xqYxP8Pqd-94" value="" style="endArrow=none;html=1;rounded=0;" edge="1" parent="1" source="-X0U_aOXgv7xqYxP8Pqd-96" target="-X0U_aOXgv7xqYxP8Pqd-28">
          <mxGeometry width="50" height="50" relative="1" as="geometry">
            <mxPoint x="680" y="210" as="sourcePoint" />
            <mxPoint x="440" y="350" as="targetPoint" />
          </mxGeometry>
        </mxCell>
        <mxCell id="-X0U_aOXgv7xqYxP8Pqd-95" value="" style="endArrow=none;html=1;rounded=0;" edge="1" parent="1" source="-X0U_aOXgv7xqYxP8Pqd-96" target="-X0U_aOXgv7xqYxP8Pqd-39">
          <mxGeometry width="50" height="50" relative="1" as="geometry">
            <mxPoint x="670" y="190" as="sourcePoint" />
            <mxPoint x="690" y="180" as="targetPoint" />
          </mxGeometry>
        </mxCell>
        <mxCell id="-X0U_aOXgv7xqYxP8Pqd-96" value="" style="fontColor=#0066CC;verticalAlign=top;verticalLabelPosition=bottom;labelPosition=center;align=center;html=1;outlineConnect=0;fillColor=#CCCCCC;strokeColor=#6881B3;gradientColor=none;gradientDirection=north;strokeWidth=2;shape=mxgraph.networks.comm_link;" vertex="1" parent="1">
          <mxGeometry x="605" y="180" width="20" height="50" as="geometry" />
        </mxCell>
        <mxCell id="-X0U_aOXgv7xqYxP8Pqd-98" value="" style="endArrow=none;html=1;rounded=0;" edge="1" parent="1" source="-X0U_aOXgv7xqYxP8Pqd-96" target="-X0U_aOXgv7xqYxP8Pqd-40">
          <mxGeometry width="50" height="50" relative="1" as="geometry">
            <mxPoint x="660" y="191" as="sourcePoint" />
            <mxPoint x="660" y="150" as="targetPoint" />
          </mxGeometry>
        </mxCell>
        <mxCell id="-X0U_aOXgv7xqYxP8Pqd-99" value="" style="fontColor=#0066CC;verticalAlign=top;verticalLabelPosition=bottom;labelPosition=center;align=center;html=1;outlineConnect=0;fillColor=#CCCCCC;strokeColor=#6881B3;gradientColor=none;gradientDirection=north;strokeWidth=2;shape=mxgraph.networks.firewall;" vertex="1" parent="1">
          <mxGeometry x="220" y="824" width="55.25" height="39" as="geometry" />
        </mxCell>
        <mxCell id="-X0U_aOXgv7xqYxP8Pqd-102" value="" style="fontColor=#0066CC;verticalAlign=top;verticalLabelPosition=bottom;labelPosition=center;align=center;html=1;outlineConnect=0;fillColor=#CCCCCC;strokeColor=#6881B3;gradientColor=none;gradientDirection=north;strokeWidth=2;shape=mxgraph.networks.terminal;" vertex="1" parent="1">
          <mxGeometry x="393" y="1080.75" width="80" height="65" as="geometry" />
        </mxCell>
        <mxCell id="-X0U_aOXgv7xqYxP8Pqd-103" value="" style="fontColor=#0066CC;verticalAlign=top;verticalLabelPosition=bottom;labelPosition=center;align=center;html=1;outlineConnect=0;fillColor=#CCCCCC;strokeColor=#6881B3;gradientColor=none;gradientDirection=north;strokeWidth=2;shape=mxgraph.networks.wireless_modem;" vertex="1" parent="1">
          <mxGeometry x="200" y="963" width="92" height="60" as="geometry" />
        </mxCell>
        <mxCell id="-X0U_aOXgv7xqYxP8Pqd-105" value="" style="fontColor=#0066CC;verticalAlign=top;verticalLabelPosition=bottom;labelPosition=center;align=center;html=1;outlineConnect=0;fillColor=#CCCCCC;strokeColor=#6881B3;gradientColor=none;gradientDirection=north;strokeWidth=2;shape=mxgraph.networks.switch;" vertex="1" parent="1">
          <mxGeometry x="200" y="894" width="94" height="27.25" as="geometry" />
        </mxCell>
        <mxCell id="-X0U_aOXgv7xqYxP8Pqd-106" value="" style="fontColor=#0066CC;verticalAlign=top;verticalLabelPosition=bottom;labelPosition=center;align=center;html=1;outlineConnect=0;fillColor=#CCCCCC;strokeColor=#6881B3;gradientColor=none;gradientDirection=north;strokeWidth=2;shape=mxgraph.networks.terminal;" vertex="1" parent="1">
          <mxGeometry x="56" y="1080.75" width="80" height="65" as="geometry" />
        </mxCell>
        <mxCell id="-X0U_aOXgv7xqYxP8Pqd-107" value="&lt;font style=&quot;color: rgb(0, 0, 0);&quot;&gt;互联网&lt;/font&gt;" style="html=1;outlineConnect=0;fillColor=#CCCCCC;strokeColor=#6881B3;gradientColor=none;gradientDirection=north;strokeWidth=2;shape=mxgraph.networks.cloud;fontColor=#ffffff;" vertex="1" parent="1">
          <mxGeometry x="202" y="736.75" width="90" height="50" as="geometry" />
        </mxCell>
        <mxCell id="-X0U_aOXgv7xqYxP8Pqd-108" value="" style="fontColor=#0066CC;verticalAlign=top;verticalLabelPosition=bottom;labelPosition=center;align=center;html=1;outlineConnect=0;fillColor=#CCCCCC;strokeColor=#6881B3;gradientColor=none;gradientDirection=north;strokeWidth=2;shape=mxgraph.networks.comm_link;" vertex="1" parent="1">
          <mxGeometry x="242" y="696" width="20" height="70.5" as="geometry" />
        </mxCell>
        <mxCell id="-X0U_aOXgv7xqYxP8Pqd-109" value="" style="endArrow=none;html=1;rounded=0;" edge="1" parent="1" source="-X0U_aOXgv7xqYxP8Pqd-103" target="-X0U_aOXgv7xqYxP8Pqd-102">
          <mxGeometry width="50" height="50" relative="1" as="geometry">
            <mxPoint x="390" y="1177" as="sourcePoint" />
            <mxPoint x="440" y="1127" as="targetPoint" />
          </mxGeometry>
        </mxCell>
        <mxCell id="-X0U_aOXgv7xqYxP8Pqd-111" value="" style="endArrow=none;html=1;rounded=0;" edge="1" parent="1" source="-X0U_aOXgv7xqYxP8Pqd-103" target="-X0U_aOXgv7xqYxP8Pqd-106">
          <mxGeometry width="50" height="50" relative="1" as="geometry">
            <mxPoint x="235" y="1000" as="sourcePoint" />
            <mxPoint x="160" y="987" as="targetPoint" />
          </mxGeometry>
        </mxCell>
        <mxCell id="-X0U_aOXgv7xqYxP8Pqd-112" value="" style="endArrow=none;html=1;rounded=0;" edge="1" parent="1" source="-X0U_aOXgv7xqYxP8Pqd-105" target="-X0U_aOXgv7xqYxP8Pqd-103">
          <mxGeometry width="50" height="50" relative="1" as="geometry">
            <mxPoint x="325" y="943" as="sourcePoint" />
            <mxPoint x="250" y="930" as="targetPoint" />
          </mxGeometry>
        </mxCell>
        <mxCell id="-X0U_aOXgv7xqYxP8Pqd-113" value="" style="endArrow=none;html=1;rounded=0;" edge="1" parent="1" source="-X0U_aOXgv7xqYxP8Pqd-99" target="-X0U_aOXgv7xqYxP8Pqd-105">
          <mxGeometry width="50" height="50" relative="1" as="geometry">
            <mxPoint x="495" y="977" as="sourcePoint" />
            <mxPoint x="420" y="964" as="targetPoint" />
          </mxGeometry>
        </mxCell>
        <mxCell id="-X0U_aOXgv7xqYxP8Pqd-114" value="" style="endArrow=none;html=1;rounded=0;" edge="1" parent="1" source="-X0U_aOXgv7xqYxP8Pqd-107" target="-X0U_aOXgv7xqYxP8Pqd-99">
          <mxGeometry width="50" height="50" relative="1" as="geometry">
            <mxPoint x="555" y="970" as="sourcePoint" />
            <mxPoint x="480" y="957" as="targetPoint" />
          </mxGeometry>
        </mxCell>
        <mxCell id="-X0U_aOXgv7xqYxP8Pqd-115" value="" style="fontColor=#0066CC;verticalAlign=top;verticalLabelPosition=bottom;labelPosition=center;align=center;html=1;outlineConnect=0;fillColor=#CCCCCC;strokeColor=#6881B3;gradientColor=none;gradientDirection=north;strokeWidth=2;shape=mxgraph.networks.terminal;" vertex="1" parent="1">
          <mxGeometry x="270" y="1080.75" width="80" height="65" as="geometry" />
        </mxCell>
        <mxCell id="-X0U_aOXgv7xqYxP8Pqd-116" value="" style="fontColor=#0066CC;verticalAlign=top;verticalLabelPosition=bottom;labelPosition=center;align=center;html=1;outlineConnect=0;fillColor=#CCCCCC;strokeColor=#6881B3;gradientColor=none;gradientDirection=north;strokeWidth=2;shape=mxgraph.networks.terminal;" vertex="1" parent="1">
          <mxGeometry x="160" y="1080.75" width="80" height="65" as="geometry" />
        </mxCell>
        <mxCell id="-X0U_aOXgv7xqYxP8Pqd-117" value="" style="endArrow=none;html=1;rounded=0;" edge="1" parent="1" source="-X0U_aOXgv7xqYxP8Pqd-103" target="-X0U_aOXgv7xqYxP8Pqd-115">
          <mxGeometry width="50" height="50" relative="1" as="geometry">
            <mxPoint x="205" y="1037" as="sourcePoint" />
            <mxPoint x="130" y="1070" as="targetPoint" />
          </mxGeometry>
        </mxCell>
        <mxCell id="-X0U_aOXgv7xqYxP8Pqd-118" value="" style="endArrow=none;html=1;rounded=0;" edge="1" parent="1" source="-X0U_aOXgv7xqYxP8Pqd-116" target="-X0U_aOXgv7xqYxP8Pqd-103">
          <mxGeometry width="50" height="50" relative="1" as="geometry">
            <mxPoint x="345" y="1097" as="sourcePoint" />
            <mxPoint x="270" y="1130" as="targetPoint" />
          </mxGeometry>
        </mxCell>
        <mxCell id="-X0U_aOXgv7xqYxP8Pqd-119" value="自助终端" style="rounded=1;whiteSpace=wrap;html=1;strokeColor=none;" vertex="1" parent="1">
          <mxGeometry x="2" y="90" width="60" height="55" as="geometry" />
        </mxCell>
        <mxCell id="-X0U_aOXgv7xqYxP8Pqd-120" value="人社经办终端" style="rounded=1;whiteSpace=wrap;html=1;strokeColor=none;" vertex="1" parent="1">
          <mxGeometry x="759" y="90" width="60" height="55" as="geometry" />
        </mxCell>
      </root>
    </mxGraphModel>
  </diagram>
</mxfile>
